<svg width="246" height="91" viewBox="0 0 246 91" fill="none" xmlns="http://www.w3.org/2000/svg">
<rect width="246" height="91" fill="white"/>
<path d="M14.72 63.23C14.4867 63.7433 14.16 64.14 13.74 64.42C13.2733 64.7 12.7833 64.84 12.27 64.84C11.5233 64.84 10.87 64.5833 10.31 64.07C9.70333 63.6033 9.4 63.02 9.4 62.32C9.4 61.9467 9.49333 61.5733 9.68 61.2L29.77 16.54C30.05 15.9333 30.47 15.4667 31.03 15.14C31.59 14.8133 32.1967 14.65 32.85 14.65C33.5033 14.65 34.11 14.8133 34.67 15.14C35.23 15.4667 35.65 15.9333 35.93 16.54L55.95 61.2C56.09 61.5733 56.16 61.9233 56.16 62.25C56.16 62.9967 55.8567 63.6033 55.25 64.07C54.6433 64.5833 53.9667 64.84 53.22 64.84C52.1 64.84 51.2833 64.3033 50.77 63.23L32.71 22.42L14.72 63.23Z" fill="black"/>
<path d="M113.65 29.15L100.5 64H95.25L82.1 29.15H86.95L97.9 59.2L108.85 29.15H113.65ZM116.939 50.2C116.939 47.4 117.506 44.95 118.639 42.85C119.772 40.7167 121.322 39.0667 123.289 37.9C125.289 36.7333 127.506 36.15 129.939 36.15C132.339 36.15 134.422 36.6667 136.189 37.7C137.956 38.7333 139.272 40.0333 140.139 41.6V36.6H144.739V64H140.139V58.9C139.239 60.5 137.889 61.8333 136.089 62.9C134.322 63.9333 132.256 64.45 129.889 64.45C127.456 64.45 125.256 63.85 123.289 62.65C121.322 61.45 119.772 59.7667 118.639 57.6C117.506 55.4333 116.939 52.9667 116.939 50.2ZM140.139 50.25C140.139 48.1833 139.722 46.3833 138.889 44.85C138.056 43.3167 136.922 42.15 135.489 41.35C134.089 40.5167 132.539 40.1 130.839 40.1C129.139 40.1 127.589 40.5 126.189 41.3C124.789 42.1 123.672 43.2667 122.839 44.8C122.006 46.3333 121.589 48.1333 121.589 50.2C121.589 52.3 122.006 54.1333 122.839 55.7C123.672 57.2333 124.789 58.4167 126.189 59.25C127.589 60.05 129.139 60.45 130.839 60.45C132.539 60.45 134.089 60.05 135.489 59.25C136.922 58.4167 138.056 57.2333 138.889 55.7C139.722 54.1333 140.139 52.3167 140.139 50.25ZM156.978 27V64H152.428V27H156.978ZM169.283 27V64H164.733V27H169.283ZM202.038 49.25C202.038 50.1167 201.988 51.0333 201.888 52H179.988C180.154 54.7 181.071 56.8167 182.738 58.35C184.438 59.85 186.488 60.6 188.888 60.6C190.854 60.6 192.488 60.15 193.788 59.25C195.121 58.3167 196.054 57.0833 196.588 55.55H201.488C200.754 58.1833 199.288 60.3333 197.088 62C194.888 63.6333 192.154 64.45 188.888 64.45C186.288 64.45 183.954 63.8667 181.888 62.7C179.854 61.5333 178.254 59.8833 177.088 57.75C175.921 55.5833 175.338 53.0833 175.338 50.25C175.338 47.4167 175.904 44.9333 177.038 42.8C178.171 40.6667 179.754 39.0333 181.788 37.9C183.854 36.7333 186.221 36.15 188.888 36.15C191.488 36.15 193.788 36.7167 195.788 37.85C197.788 38.9833 199.321 40.55 200.388 42.55C201.488 44.5167 202.038 46.75 202.038 49.25ZM197.338 48.3C197.338 46.5667 196.954 45.0833 196.188 43.85C195.421 42.5833 194.371 41.6333 193.038 41C191.738 40.3333 190.288 40 188.688 40C186.388 40 184.421 40.7333 182.788 42.2C181.188 43.6667 180.271 45.7 180.038 48.3H197.338ZM231.643 36.6L215.143 76.9H210.443L215.843 63.7L204.793 36.6H209.843L218.443 58.8L226.943 36.6H231.643Z" fill="black"/>
<path d="M49.44 63.08C49.0133 63.9867 48.3067 64.44 47.32 64.44C46.6533 64.44 46.0533 64.2267 45.52 63.8C44.9867 63.3733 44.72 62.84 44.72 62.2C44.72 61.9067 44.8 61.5733 44.96 61.2L56.04 37.36C56.28 36.8533 56.6533 36.4533 57.16 36.16C57.64 35.8933 58.16 35.76 58.72 35.76C59.28 35.76 59.8133 35.8933 60.32 36.16C60.8 36.4533 61.16 36.8533 61.4 37.36L72.44 61.2C72.6 61.5733 72.68 61.8933 72.68 62.16C72.68 62.8267 72.4133 63.3733 71.88 63.8C71.32 64.2267 70.6933 64.44 70 64.44C69.5467 64.44 69.1333 64.32 68.76 64.08C68.36 63.8667 68.0533 63.5333 67.84 63.08L58.64 42.64L49.44 63.08Z" fill="black"/>
<rect x="24.4502" y="41.3114" width="15" height="39" transform="rotate(-24.7331 24.4502 41.3114)" fill="white"/>
</svg>
